<svg xmlns="http://www.w3.org/2000/svg"> 
  	<symbol viewBox="0 0 80 80" id="s">
		<path d="M73.68,25.56c0-1.11-0.91-2.01-2.04-2.01H7.95c-1.13,0-2.04,0.9-2.04,2.01l-3,26.64c0,1.11,0.91,2.01,2.04,2.01h69.68
		c1.13,0,2.04-0.9,2.04-2.01L73.68,25.56z M38.12,44.5h-2.01V33.62h2.01V44.5z"/>
	<path d="M74.64,55.21H4.95c-1.4,0-2.54-1.14-2.54-2.54l3-27.13c0-1.35,1.14-2.49,2.54-2.49h63.68
		c1.39,0,2.53,1.12,2.54,2.51l3,27.05C77.18,54.07,76.04,55.21,74.64,55.21z M7.95,24.05c-0.85,0-1.54,0.69-1.54,1.54l-3,27.13
		c0,0.8,0.69,1.49,1.54,1.49h69.68c0.85,0,1.54-0.69,1.54-1.54l-3-27.07c0-0.85-0.69-1.54-1.54-1.54H7.95z M46.15,45.57
		c-3.59,0-6-2.47-6-6.14c0-3.75,2.65-6.37,6.43-6.37c1.3,0,2.43,0.34,3.01,0.62l0.37,0.19l-0.75,2.56l-0.55-0.31
		c-0.37-0.21-1.02-0.46-2.08-0.46c-2.51,0-3.4,1.98-3.4,3.68c0,2.17,1.34,3.63,3.33,3.63c1.03,0,1.71-0.26,2.26-0.5l0.55-0.24
		l0.56,2.47l-0.34,0.18C48.94,45.19,47.68,45.57,46.15,45.57z M24.24,45.57c-4.92,0-8.1-3.25-8.1-8.28c0-5.05,3.51-8.58,8.54-8.58
		c2.28,0,3.55,0.57,3.88,0.74l0.36,0.19l-0.76,2.58l-0.53-0.26c-0.45-0.22-1.43-0.59-2.89-0.59c-3.45,0-5.5,2.19-5.5,5.85
		c0,3.56,2.02,5.69,5.41,5.69c1.12,0,2.28-0.23,3.02-0.59l0.55-0.27l0.67,2.56l-0.36,0.18C27.77,45.16,26.25,45.57,24.24,45.57z
		 M61.94,45.34h-3.7l-3.6-5l-0.48,0.54v4.46h-2.99V28.13h2.99v9.33c0.05-0.06,0.1-0.12,0.14-0.17l3.4-3.99h3.81l-4.77,5.08
		L61.94,45.34z M33.23,45.34h-3.01V28.13h3.01V45.34z M37.07,32.42c-0.96,0-1.71-0.76-1.71-1.73c0-1,0.75-1.76,1.76-1.76
		c1,0,1.73,0.74,1.73,1.76c0.02,0.45-0.15,0.89-0.46,1.21C38.06,32.23,37.59,32.42,37.07,32.42z"/>
	</symbol>
</svg>
