
		<svg xmlns="http://www.w3.org/2000/svg"> 

  			<symbol viewBox="0 0 17 15" id="s">
			  <path d="M15.9,12.4c-0.7,0-1.5,0-2.2,0c-0.1,0-0.2,0-0.2,0.1c-0.3,0.7-0.8,1-1.6,1c-0.7,0-1.3-0.4-1.6-1c-0.1-0.1-0.1-0.1-0.2-0.1
			c-1.1,0-2.2,0-3.3,0c-0.1,0-0.1,0-0.2,0.1c-0.3,0.7-0.8,1-1.6,1c-0.7,0-1.3-0.4-1.6-1c0-0.1-0.1-0.1-0.2-0.1c-0.3,0-0.7,0-1-0.1
			c-0.7-0.3-1.1-0.9-1.1-1.6c0-0.8,0-1.6,0-2.4c0,0,0-0.1,0-0.1c0.4,0,0.8,0,1.2,0c0,0.1,0,0.1,0,0.2c0,0.8,0,1.5,0,2.3
			c0,0.4,0.2,0.6,0.7,0.7c0.3,0,0.5,0,0.6-0.3c0.3-0.6,0.9-0.9,1.6-0.8c0.7,0.1,1.2,0.4,1.4,1c0,0.1,0.1,0.1,0.2,0.1
			c1.1,0,2.2,0,3.3,0c0,0,0,0,0.1,0c0,0,0-0.1,0-0.1c0-2.6,0-5.3,0-7.9c0-0.4-0.2-0.7-0.7-0.7c-2.2,0-4.3,0-6.5,0
			c-0.4,0-0.7,0.2-0.7,0.7c0,0.5,0,1,0,1.5c-0.4,0-0.8,0-1.2,0c0-0.1,0-0.1,0-0.2c0-0.5,0-0.9,0-1.4c0-1,0.8-1.7,1.7-1.7
			c2.2,0,4.4,0,6.7,0c1,0,1.7,0.8,1.7,1.7c0,0.4,0,0.8,0,1.1c0.4,0,0.7,0,1,0c0.7,0,1.2,0.3,1.6,0.8c0.5,0.7,1,1.3,1.5,2
			c0.3,0.3,0.4,0.7,0.5,1.2c0,0,0,0,0,0.1C15.9,9.6,15.9,11,15.9,12.4z M14.7,11.3c0-0.9,0-1.7,0-2.5c-1.2,0-2.3,0-3.4,0
			c0,0.2,0,0.5,0,0.7c0,0.2,0,0.5,0,0.7c0.2,0,0.3-0.1,0.5-0.1c0.8,0,1.4,0.4,1.7,1.1c0,0,0.1,0.1,0.1,0.1
			C13.9,11.3,14.3,11.3,14.7,11.3z M14.3,7.6c-0.5-0.7-1-1.3-1.5-1.9c-0.1-0.1-0.2-0.2-0.4-0.2c-0.4,0-0.8,0-1.2,0
			c0,0.7,0,1.4,0,2.1C12.3,7.6,13.3,7.6,14.3,7.6z M5,12.4c0.3,0,0.6-0.3,0.6-0.6c0-0.3-0.3-0.6-0.6-0.6c-0.3,0-0.6,0.3-0.6,0.6
			C4.4,12.2,4.7,12.4,5,12.4z M11.8,12.4c0.3,0,0.6-0.3,0.6-0.6c0-0.3-0.3-0.6-0.6-0.6c-0.3,0-0.6,0.3-0.6,0.6
			C11.3,12.2,11.5,12.4,11.8,12.4z"/>
		<path d="M4.6,8.2C5,7.8,5.4,7.4,5.8,7C4.2,7,2.7,7,1.1,7c0-0.4,0-0.8,0-1.2c1.6,0,3.1,0,4.7,0C5.4,5.5,5,5.1,4.6,4.7
			c0.3-0.3,0.6-0.6,0.8-0.8C6.3,4.7,7.2,5.6,8,6.4C7.2,7.3,6.3,8.1,5.4,9C5.2,8.7,4.9,8.5,4.6,8.2z"/>
</symbol>
   		</svg>
	