
		<svg xmlns="http://www.w3.org/2000/svg"> 

  			<symbol viewBox="0 0 80 80" id="s"><path d="M80,40c0,22-17.9,40-40,40S0,62,0,39.9C0,17.9,18,0,40,0C62.1,0,80,18,80,40z M2.5,40.1c0,20.6,16.8,37.4,37.4,37.4
		c20.7,0,37.5-16.8,37.5-37.5S60.6,2.5,40,2.5C19.3,2.5,2.5,19.4,2.5,40.1z" />
<path d="M41.9,62.7c-12.1,0-21-6.8-23.7-16.5c-0.2-0.9-0.6-2,0.7-2.3c1.3-0.3,1.5,0.7,1.8,1.6c2.7,8.9,10.4,14.6,19.5,14.6
		c9,0,16.7-5.9,19.3-14.7c0-0.1,0-0.4,0.1-0.4c0.5-0.4,1.1-0.8,1.6-1.3c0.3,0.6,0.9,1.4,0.8,1.9c-0.6,1.9-1.2,3.8-2.2,5.5
		C55.3,58.6,48.6,62.5,41.9,62.7z" />
<path d="M21.7,31c0-0.7,0-1.5,0-2.2c0.1-2.1,1.7-3.6,3.9-3.7c2.2,0,3.9,1.3,4,3.5c0.1,1.6,0.1,3.2,0,4.8c-0.2,2.1-2.1,3.6-4,3.5
		c-2.1-0.1-3.7-1.7-3.9-3.8C21.7,32.4,21.7,31.7,21.7,31z" />
<path d="M58.3,31c0,0.8,0.1,1.6,0,2.3c-0.2,2-1.7,3.4-3.9,3.5c-1.8,0.1-3.7-1.2-3.9-3.1c-0.2-1.8-0.2-3.6,0-5.4
		c0.2-2,2-3.3,4.1-3.2c2,0.1,3.5,1.6,3.7,3.5C58.3,29.4,58.3,30.2,58.3,31z" />
</symbol>
   		</svg>
	