
		<svg xmlns="http://www.w3.org/2000/svg"> 

  			<symbol viewBox="0 0 80 80" id="s"><path d="M14.2,16.7c0.9,0,1.6,0,2.3,0c19.7,0,39.3,0.1,59-0.1c3.3,0,5.3,1.6,4.3,5.4c-2.2,8.1-4.1,16.4-6.2,24.5
	c-0.7,2.7-1.6,3.3-4.4,3.5c-11.3,0.7-22.6,1.4-33.9,2c-4.9,0.3-9.8,0.5-14.6,0.8c-0.9,0-1.8,0.1-2.7,0.2c0.8,2.5,2.9,3.7,6.1,3.7
	c5.5,0,11.1,0,16.6,0c6.6,0,13.1,0,19.7,0c4.8,0,9,3.8,9.6,8.5c0.7,4.8-2.5,9.6-7.1,11c-7.2,2.1-14.1-4.2-12.6-11.5
	c0.1-0.4,0.1-0.8,0.2-1.3c-5.9,0-11.7,0-17.5,0c0.5,6.9-1.2,10.6-5.8,12.5c-4.1,1.7-8.5,0.7-11.5-2.8c-2.7-3.2-3.6-7.4-0.3-12.5
	c-2.5-2.1-4.2-4.8-4.6-8.1c-0.5-4.1-0.8-8.2-1.1-12.3C8.8,31.4,8,22.5,7.2,13.6C7.1,12.4,7.1,11.3,7,9.9c-1.1,0-2.2,0-3.2,0
	C1.4,9.8,0,8.6,0,6.7c-0.1-2,1.4-3.3,3.8-3.4c1.9-0.1,3.8-0.1,5.7,0C12,3.4,13,4.4,13.3,7C13.6,10.2,13.9,13.4,14.2,16.7z
	 M72.6,23.4c-19.4,0-38.5,0-57.8,0c0.7,7.7,1.4,15.4,2.1,23.2c17-1,33.8-2,50.7-3C69.2,36.8,70.9,30.2,72.6,23.4z M23.3,70.1
	c1.9,0,3.4-1.5,3.4-3.4c0-1.8-1.7-3.4-3.5-3.3c-1.8,0.1-3.2,1.5-3.3,3.3C20,68.7,21.4,70.1,23.3,70.1z M60,70.1
	c1.9,0,3.4-1.4,3.4-3.3c0-1.8-1.6-3.4-3.4-3.4c-1.8,0-3.3,1.5-3.3,3.3C56.7,68.6,58.1,70.1,60,70.1z" />
</symbol>
   		</svg>
	