
		<svg xmlns="http://www.w3.org/2000/svg"> 

  			<symbol viewBox="0 0 80 80" id="s"><path d="M0,42.2C0,31.5,0,20.6,0,9.8C0.2,8.9,0.4,8,0.7,7.3C2,4.7,4.3,3.4,7.2,3.4c8.2,0,16.5,0,24.7,0c7.9,0,15.9,0,23.8,0
		c4.1,0,7,2.7,7,6.8c0,1.4,0,3,0,4.5c0,2.3,0.4,2.7,2.7,2.7c2.9,0,5.9,0,8.8,0.2c2.7,0.2,4.8,2,5.5,4.7c0.2,0.7,0.4,1.4,0.4,2
		c0,10.6,0,20.9,0,31.5c0,0.2-0.2,0.2-0.2,0.4c-0.2,3.4-2.1,5.5-5.4,6.4c-1.4,0.4-1.6,0.7-1.6,2.1c0,3.6,0,7.3,0,10.9
		c0,0.4,0,0.5,0,1.1c-0.4-0.2-0.5-0.4-0.9-0.5c-5.2-3.8-10.4-7.7-15.4-11.5c-1.6-1.3-3.4-1.8-5.4-1.8c-8.6,0-17,0-25.6-0.2
		c-1.8,0-3.6-0.4-5.2-0.5c0-0.2-0.2-0.2-0.2-0.4c0.2-0.4,0.4-0.7,0.5-0.9c1.6-1.3,3.4-2.5,5-3.8c1.3-1.1,2.5-1.3,3.9-1.3
		c8.2,0,16.5,0,24.7,0c1.6,0,2.9,0.4,4.1,1.4c2.1,1.6,4.5,3.2,6.6,4.8c0.2,0.2,0.4,0.4,0.7,0.5c0-2.3,0-4.5,0-6.8c2.3,0,4.5,0,6.8,0
		c0-10.6,0-20.9,0-31.3c-3,0-5.9,0-8.8,0c-0.2,0-0.7,0.2-0.7,0.5c-0.2,0.5-0.5,1.1-0.5,1.6c-0.2,1.3,0,2.5,0,3.8
		c0,3.9,0,7.7-0.2,11.6c-0.2,3.8-2,5.7-5.5,6.4c-0.9,0.2-1.8,0.2-2.7,0.2c-8.4,0-17,0-25.4,0c-2.1,0-4.1,0.5-5.7,2
		c-4.6,3.5-9,6.9-13.7,10.4c-0.7,0.5-1.6,1.1-2.5,1.6c0-0.4,0-0.7,0-0.9c0-3.8,0-7.5,0-11.3c0-1.1-0.4-1.6-1.4-2
		c-0.4,0-0.5-0.2-0.9-0.2c-1.6-0.4-2.9-1.3-3.6-2.7C0.5,44.4,0.2,43.3,0,42.2z M14,48.5c0.4-0.2,0.5-0.4,0.9-0.5
		c2.1-1.6,4.3-3.2,6.4-4.8c1.3-0.9,2.5-1.4,4.1-1.4c9.7,0,19.3,0,29,0c0.9,0,1.1-0.2,1.3-1.1c0-0.2,0-0.4,0-0.5c0-9.1,0-18.3,0-27.4
		c0-2.1-0.2-2.3-2.3-2.3c-14.7,0-29.4,0-43.8,0c-2.3,0-2.7,0.4-2.7,2.5c0,8.8,0,17.5,0,26.3c0,0.9,0.2,1.6,0.2,2.5c2.3,0,4.7,0,7,0
		C14,44,14,46.2,14,48.5z" />
<path d="M32.9,22.4c2.1,0,3.8,1.8,3.8,3.8c0,2.1-1.8,3.9-3.8,3.9c-2.1,0-3.8-1.8-3.8-3.8C29,24.2,30.8,22.4,32.9,22.4z" />
<path d="M16.1,26.3c0-2.1,1.8-3.8,3.8-3.8c2.1,0,3.8,1.8,3.8,3.8c0,2.1-1.8,3.8-3.9,3.8C17.7,30.1,16.1,28.3,16.1,26.3z" />
<path d="M46,22.4c2.1,0,3.8,1.6,3.8,3.8S48,29.9,46,30.1c-2.1,0-3.9-1.8-3.9-3.8C42.1,24.2,43.8,22.4,46,22.4z" />
</symbol>
   		</svg>
	