
		<svg xmlns="http://www.w3.org/2000/svg"> 

  			<symbol viewBox="0 0 80 80" id="s"><path d="M37.4,80c-1.8-0.5-3.7-0.8-5.5-1.4c-8.8-3-14.9-10.9-15.2-20.2c-0.3-10.5-0.1-21.1-0.1-31.6c0-2.1,1.3-3.4,3.3-3.4
		s3.2,1.4,3.2,3.6c0,9.8,0,19.7,0,29.5c0,8.4,5.3,14.8,13.3,16.5c10.5,2.2,20-5.5,20-16.3c0-13.3,0-26.5,0-39.8
		c0-5.7-4.3-10.2-9.8-10.2c-5.7-0.1-10.1,4.2-10.2,10.1c-0.1,13.2,0,26.3,0,39.5c0,2.6,1.1,3.9,3.3,3.8c2.2,0,3.4-1.3,3.4-3.9
		c0-9.3,0-18.6,0-27.9c0-0.6,0-1.2,0-1.8c0.1-1.9,1.4-3.1,3.2-3.1s3.3,1.3,3.3,3.2c0,10.3,0.1,20.6,0,30.9c-0.1,5.3-4.4,9.1-9.9,9.1
		c-5.7,0-9.8-3.8-10-9.4c-0.1-3.7,0-7.5,0-11.2c0-9.3,0-18.6,0-27.9c0-9.8,4.8-15.7,14.3-17.9c0.1,0,0.2-0.1,0.3-0.2
		c1.3,0,2.6,0,3.9,0c0.3,0.1,0.5,0.2,0.8,0.3c8.1,1.4,13.9,8.1,14,16.4c0.1,13.4,0.1,26.9,0,40.3c-0.1,10.2-6.4,18.9-15.9,21.9
		c-1.6,0.5-3.3,0.8-5,1.2C40.8,80,39.1,80,37.4,80z" />
</symbol>
   		</svg>
	