
<svg xmlns="http://www.w3.org/2000/svg"> 
  	<symbol viewBox="0 0 80 80" id="s">
		<path d="M72.17,54.6H7.82c-1.87,0-3.39-1.52-3.39-3.39V28.79c0-1.87,1.52-3.39,3.39-3.39h64.35c1.87,0,3.39,1.52,3.39,3.39v22.42    C75.56,53.08,74.04,54.6,72.17,54.6z M7.82,26.4c-1.32,0-2.39,1.07-2.39,2.39v22.42c0,1.32,1.07,2.39,2.39,2.39h64.35    c1.32,0,2.39-1.07,2.39-2.39V28.79c0-1.32-1.07-2.39-2.39-2.39H7.82z"/><path d="M25.9,45.44c0,0.88-0.71,1.59-1.59,1.59H13.42c-0.88,0-1.59-0.71-1.59-1.59V34.56c0-0.88,0.71-1.59,1.59-1.59h10.89   c0.88,0,1.59,0.71,1.59,1.59V45.44z"/>
		<path d="M46.95,45.44c0,0.88-0.71,1.59-1.59,1.59H34.47c-0.88,0-1.59-0.71-1.59-1.59V34.56c0-0.88,0.71-1.59,1.59-1.59h10.89   c0.88,0,1.59,0.71,1.59,1.59V45.44z"/>
		<path d="M68,45.44c0,0.88-0.71,1.59-1.59,1.59H55.52c-0.88,0-1.59-0.71-1.59-1.59V34.56c0-0.88,0.71-1.59,1.59-1.59h10.89   c0.88,0,1.59,0.71,1.59,1.59V45.44z"/>
	</symbol>
</svg>
	