
		<svg xmlns="http://www.w3.org/2000/svg"> 

  			<symbol viewBox="0 0 80 80" id="s"><path d="M79.2,60.4L79.2,60.4c0.2,0,0.2,0,0.2,0s0,0,0.2,0l0,0c0,0,0,0,0.2,0l0,0l0,0l0,0l0,0l0,0c0,0,0,0,0.2-0.2l0,0l0,0
		c0,0,0,0,0.2-0.2l0,0l0,0c0,0,0,0,0-0.2l0,0c0,0,0,0,0-0.2l0,0c0,0,0,0,0-0.2c0,0,0,0,0-0.2c0,0,0,0,0-0.2c0,0,0,0,0-0.2
		c0,0,0,0,0-0.2l0,0v-0.2V21.3c0-0.9-0.8-1.7-1.7-1.7H23.8l0,0c0,0,0,0-0.2,0c0,0,0,0-0.2,0c0,0,0,0-0.2,0c0,0,0,0-0.2,0
		c0,0,0,0-0.2,0c0,0,0,0-0.2,0c0,0,0,0-0.2,0l0,0c0,0,0,0-0.2,0l0,0c0,0,0,0-0.2,0l0,0l0,0l0,0l0,0l0,0l0,0l0,0c0,0,0,0,0,0.2l0,0
		c0,0,0,0,0,0.2l0,0c0,0,0,0,0,0.2l0,0c0,0,0,0,0,0.2c0,0,0,0,0,0.2c0,0,0,0,0,0.2c0,0,0,0,0,0.2c0,0,0,0,0,0.2c0,0,0,0,0,0.2
		c0,0,0,0,0,0.2c0,0,0,0,0,0.2l0,0V32c0,0.9,0.8,1.7,1.7,1.7s1.7-0.8,1.7-1.7v-6.9L41,38.8c-0.2,0-0.2,0.2-0.3,0.2L25.8,54.3V42.8
		c0-0.9-0.8-1.7-1.7-1.7c-0.9,0-2.1,0.8-2.1,1.8V45h-9c-0.9,0-1.7,0.8-1.7,1.7s0.8,1.7,1.7,1.7h9v10.1c0,0.9,0.8,1.7,1.7,1.7h55.1
		H79C79.1,60.4,79.1,60.4,79.2,60.4C79.1,60.4,79.1,60.4,79.2,60.4z M77.1,54.4L61.8,39.2l0,0l11.5-9.8c0.8-0.6,0.8-1.7,0.2-2.4
		s-1.7-0.8-2.4-0.2L51.3,43.3L28.4,23h48.7V54.4L77.1,54.4z M43.4,41.6c0.2-0.2,0.2-0.3,0.3-0.5l6.6,5.8c0.3,0.3,0.8,0.5,1.2,0.5
		c0.5,0,0.8-0.2,1.1-0.5l6.7-5.6c0,0.2,0.2,0.2,0.2,0.3l15.3,15.3H28.1L43.4,41.6z" />
<path d="M1.8,39.5h29.5c0.9,0,1.7-0.8,1.7-1.7s-0.8-1.7-1.7-1.7H1.8c-0.9,0-1.7,0.8-1.7,1.7S0.8,39.5,1.8,39.5z" />
<path d="M4.9,29.8h13.3c0.9,0,1.7-0.8,1.7-1.7s-0.8-1.7-1.7-1.7H4.9c-0.9,0-1.7,0.8-1.7,1.7C3.1,29.1,3.8,29.8,4.9,29.8z" />
<path d="M14.5,52.4H1.7c-0.9,0-1.7,0.8-1.7,1.7s0.8,1.7,1.7,1.7h12.8c0.9,0,1.7-0.8,1.7-1.7S15.6,52.4,14.5,52.4z" />
</symbol>
   		</svg>
	