<svg xmlns="http://www.w3.org/2000/svg"> 
  	<symbol viewBox="0 0 58 55" id="s">
		<path d="M0.2,0v55H58V0H0.2z M41.3,17.8c-0.1,5.3-2.3,9.5-7.1,12.1c-0.9,0.5-2,0.7-3,1c-0.4,0.1-0.5,0.2-0.5,0.6c0,4.6,0,9.3,0,13.9
		c0,0.1,0,0.2,0,0.2c1.7,0.3,3.4,0.5,5.1,0.9c1,0.3,2,0.7,3,1.2c0.7,0.3,1.2,0.9,1.3,1.8c-7.3,0-14.6,0-21.9,0c0-0.7,0.4-1.2,0.9-1.5
		c1.2-0.9,2.5-1.4,4-1.7c1.5-0.3,2.9-0.5,4.5-0.7c0-0.2,0-0.4,0-0.6c0-4.5,0-8.9,0-13.4c0-0.3,0-0.6-0.5-0.8
		c-5.2-1.1-8.2-4.5-9.6-9.4c-0.4-1.2-0.5-2.6-0.5-3.8c-0.1-3.9,0-7.7,0-11.6c0-0.2,0-0.3,0.1-0.6c3.4,0,6.8,0,10.3,0
		c-1.4,2-2.8,4-4.2,6c2,0.5,3.9,1,6,1.6c-2,2.2-3.9,4.4-6,6.6c1.5,0.4,3,0.8,4.5,1.2c-1.1,2.4-2.1,4.7-3.1,7.1c0,0,0.1,0.1,0.1,0.1
		c2.5-2.9,5-5.8,7.6-8.7c-1.6-0.3-3-0.6-4.5-0.9c2.5-2.4,4.9-4.8,7.4-7.2c-2-0.6-3.9-1.1-6-1.7c0.9-1,1.8-1.8,2.5-2.7
		c0.8-1.1,1.8-1.4,3.1-1.3c1.9,0.1,3.8,0,5.7,0c0.3,0,0.5,0,0.9,0c0,0.3,0,0.6,0,0.8C41.3,10.1,41.4,13.9,41.3,17.8z"/>
	</symbol>
</svg>
	