
		<svg xmlns="http://www.w3.org/2000/svg"> 

  			<symbol viewBox="0 0 80 80" id="s"><path d="M0,39.9C0,17.7,18.2,0.2,39.8,0C61.9-0.2,80,17.8,80,39.8C80,62.1,62.1,80,39.9,80C17.9,80,0.1,62.1,0,39.9z M39.9,75.9
		C59.7,76,75.8,60.1,76,40.2C76.1,20.3,60.1,4.2,40.2,4C19.3,3.8,4,21.3,4,39.9C4.1,59.8,20,75.9,39.9,75.9z" />
<path d="M36.7,40c-2.1-2-4.2-4-6.2-5.9c-1.4-1.4-2.9-2.8-4.3-4.3c-3.4-3.6-3.3-9,0.1-12.4s8.9-3.5,12.4-0.1
		c5.7,5.6,11.3,11.2,16.9,16.9c3.4,3.4,3.3,8.7,0,12.1c-5.4,5.5-10.8,10.9-16.3,16.3c-3.7,3.6-9.1,3.5-12.6-0.1
		c-3.5-3.6-3.3-8.9,0.3-12.6c2.8-2.8,5.5-5.6,8.3-8.3C35.7,41.1,36,40.7,36.7,40z" />
</symbol>
   		</svg>
	