
		<svg xmlns="http://www.w3.org/2000/svg"> 

  			<symbol viewBox="0 0 15.75 14.51" id="s">
			  <path d="M6.41.6l.06,0a.71.71,0,0,1,.51,1L6.5,2.81,6.44,3H13a3.62,3.62,0,0,1,3.08,1.55,3.27,3.27,0,0,1,.67,1.91c0,1.74,0,3.48,0,5.23a3.63,3.63,0,0,1-2.3,3.19,4,4,0,0,1-1.41.26H6a1.16,1.16,0,0,1-1.23-.9A1.83,1.83,0,0,1,4.78,13,1.19,1.19,0,0,1,6,12.32H13a1,1,0,0,0,.61-.16.89.89,0,0,0,.38-.77Q14,9,14,6.69a.9.9,0,0,0-1-.95H6.58l.07.16c.18.39.37.77.55,1.17a.71.71,0,0,1-.55,1,.78.78,0,0,1-.55-.14L2.67,5.86,1.57,5.21a1,1,0,0,1-.51-.58V4.32a1.35,1.35,0,0,1,.57-.61l4-2.79C5.84.79,6,.7,6.23.6Z" transform="translate(-1.06 -0.6)"/>
</symbol>
   		</svg>
	