
		<svg xmlns="http://www.w3.org/2000/svg"> 

  			<symbol viewBox="0 0 80 80" id="s"><path d="M40.1,80C17.9,80,0,62.1,0,39.8c0-22,18.1-40,40.2-39.8C61.8,0.2,80,17.7,80,39.9C79.9,62.1,62.1,80,40.1,80z M76,39.9
		C76,21.3,60.7,3.8,39.8,4C19.9,4.2,3.9,20.3,4,40.2C4.1,60,20.2,76,40,75.9C60,75.9,75.9,59.8,76,39.9z" />
<path d="M43.3,40c2.1-2,4.2-4,6.2-5.9c1.4-1.4,2.9-2.8,4.3-4.3c3.4-3.6,3.3-9-0.1-12.4c-3.4-3.4-8.9-3.5-12.4-0.1
		C35.7,22.9,30,28.5,24.5,34.2c-3.4,3.4-3.3,8.7,0,12.1c5.4,5.5,10.8,10.9,16.3,16.3c3.7,3.6,9.1,3.5,12.6-0.1
		c3.5-3.6,3.3-8.9-0.3-12.6c-2.8-2.8-5.5-5.6-8.3-8.3C44.3,41.1,44,40.7,43.3,40z" />
</symbol>
   		</svg>
	