
		<svg xmlns="http://www.w3.org/2000/svg"> 

  			<symbol viewBox="0 0 80 80" id="s"><path d="M55.4,40c-3.6-0.6-7.1-1.2-10.7-1.8c-5.9-1-11.7-2-17.6-2.9c-5.3-0.9-10.7-1.8-16-2.7c-0.6-0.1-0.8-0.3-1-0.8
	c-2.3-6.1-4.6-12.3-6.9-18.4c-0.9-2.5-1.9-5.1-2.8-7.6C-0.4,4.2-0.2,2.6,1,1.4c1.3-1.3,3-1.7,4.7-1.1c2,0.8,3.8,1.8,5.7,2.7
	c9.8,4.9,19.6,9.9,29.5,14.8c12,6,23.9,12,35.9,18c1.5,0.8,2.8,1.6,3.2,3.3c0.4,1.7-0.3,3.2-1.8,4C70.8,47,63.4,50.7,56,54.4
	c-11.4,5.7-22.8,11.5-34.2,17.2c-5.2,2.6-10.5,5.3-15.7,7.9c-1.7,0.8-3.6,0.6-4.9-0.6c-1.2-1-1.5-2.9-0.9-4.7
	c1.8-4.9,3.7-9.8,5.5-14.7c1.3-3.5,2.6-6.9,3.8-10.4c0.3-1,0.8-1.5,1.9-1.6c6.2-1,12.4-2,18.6-3c8.1-1.3,16.2-2.7,24.2-4.1
	c0.3-0.1,0.6-0.1,0.9-0.1C55.4,40.2,55.4,40.1,55.4,40z" />
</symbol>
   		</svg>
	