
<svg xmlns="http://www.w3.org/2000/svg"> 
  	<symbol viewBox="0 0 80 80" id="s">
		<path d="M68.54,71.76H11.46c-1.78,0-3.23-1.45-3.23-3.23V11.46c0-1.78,1.45-3.23,3.23-3.23h57.07c1.78,0,3.23,1.45,3.23,3.23v57.07   C71.76,70.31,70.32,71.76,68.54,71.76z M12.24,67.76h55.52V12.24H12.24V67.76z"/><path d="M16.43,54.44c-0.92,0-1.75-0.55-2.11-1.39c-0.36-0.84-0.18-1.82,0.45-2.48l18.19-19.01c0.43-0.45,1.04-0.71,1.66-0.71  c0.62,0,1.22,0.26,1.66,0.71l18.19,19.01c0.64,0.66,0.81,1.64,0.45,2.49c-0.36,0.84-1.19,1.39-2.11,1.39H16.43z"/><path d="M65.33,49.12L55.01,38.34c-0.37-0.38-0.88-0.6-1.41-0.6s-1.04,0.22-1.41,0.6l-3.67,3.84l7.03,7.35   c0.76,0.79,1.11,1.84,1.04,2.89h7.34c0.78,0,1.49-0.46,1.79-1.18C66.02,50.52,65.87,49.69,65.33,49.12z"/><circle cx="47.1" cy="30.46" r="3.4"/>
	</symbol>
</svg>
	