
		<svg xmlns="http://www.w3.org/2000/svg"> 

  			<symbol viewBox="0 0 80 80" id="s"><path d="M65.7,45.8c0.1-0.1,0.3-0.1,0.3-0.3c-1-1.7-1.7-3.4-3-4.9c-3.9-4.9-9.5-6.8-15.5-7.2c-2-0.1-3.9,0-5.9,0.7
		c-3.3,1.1-6.6,0.9-9.9-0.4c-0.4-0.1-0.9-0.3-1.4-0.3c-2.4,0.1-5,0.1-7.5,0.7c-7,1.6-12.4,5.5-14.2,12.8C7.4,51.2,8,55.8,8.1,60.1
		c0,2.7,1.3,4.5,3.9,5.3c1.7,0.6,3.3,1.4,5,2.2c0.3-3,0.6-5.7,0.7-8.3c0.7,2.7,1.1,5.3,1.4,8c0.1,0.9,0.4,1.3,1.3,1.4
		c4.7,1.4,9.6,2.2,14.6,2.4c0.3,0,0.7,0,1.1-0.1c-3.2-9-1.7-17.1,5.6-23.3C49.2,41.2,57.4,41.2,65.7,45.8z" />
<path d="M37.3,31c8.8-0.1,15.7-7,15.5-15.8C52.7,6.7,45.6,0,37.1,0S21.8,7,21.9,15.6C21.9,24.1,29,31.1,37.3,31z" />
<path d="M65.7,45.8c-8.3-4.6-16.5-4.6-23.8,1.7c-7.3,6.2-8.8,14.2-5.6,23.3c-0.4,0-0.7,0.1-1.1,0.1c-5-0.3-9.9-1-14.6-2.4
		c-0.9-0.3-1.1-0.6-1.3-1.4c-0.3-2.7-0.7-5.3-1.4-8c-0.3,2.7-0.4,5.5-0.7,8.3c-1.9-0.7-3.4-1.6-5-2.2c-2.6-0.9-3.7-2.6-3.9-5.3
		c0-4.5-0.7-8.9,0.4-13.2c1.9-7.3,7.2-11.2,14.2-12.8c2.4-0.6,5-0.4,7.5-0.7c0.4,0,1,0.1,1.4,0.3c3.3,1.3,6.6,1.4,9.9,0.4
		c2-0.7,3.9-0.9,5.9-0.7c6,0.4,11.5,2.3,15.5,7.2c1.1,1.4,2,3.3,3,4.9C65.9,45.5,65.7,45.6,65.7,45.8z" />
<path d="M37.3,31c-8.3,0.1-15.4-6.9-15.4-15.4S28.7,0.1,37.1,0c8.5,0,15.7,6.8,15.7,15.2C52.9,23.9,46.1,31,37.3,31z" />
<path d="M54.7,45.3c9.8,0.1,17.5,7.9,17.4,17.5c-0.1,9.6-7.9,17.2-17.5,17.1c-9.6-0.1-17.2-7.9-17.1-17.8
		C37.4,52.9,45.3,45.2,54.7,45.3z M54.8,72.9L54.8,72.9c2.2,0,4.5,0,6.6,0c0.9,0,1.3-0.3,1.3-1.1c0-3.6,0-7.2,0-10.8
		c0-0.3-0.3-1-0.6-1c-1.3-0.1-1.1-0.9-1.1-1.7c0-0.7,0-1.3,0-2c-0.1-3.4-2.9-6-6.2-6c-3.4,0-6.2,2.7-6.2,6.3c0,0.9,0,1.7,0,2.6
		c0,0.3-0.4,0.7-0.6,0.7c-1,0.1-1.1,0.7-1.1,1.4c0,3.4,0,6.9,0,10.3c0,1,0.4,1.4,1.4,1.4C50.5,72.9,52.7,72.9,54.8,72.9z" />
<path d="M54.7,59.7c-0.9,0-1.9,0-2.7,0c-0.9,0-1.3-0.1-1.3-1.1c0.1-0.7,0-1.6,0-2.4c0-2.3,1.7-3.9,3.9-4c2.2-0.1,4,1.4,4.3,3.7
		c0.1,1,0.1,2,0,3c0,0.3-0.6,0.7-0.9,0.9C57,59.7,55.8,59.7,54.7,59.7L54.7,59.7z" />
</symbol>
   		</svg>
	