
<svg xmlns="http://www.w3.org/2000/svg"> 
  	<symbol viewBox="0 0 80 80" id="s">
		<polygon points="19.09,58.86 16.62,54.79 17.76,54.1 19.15,56.4 23.48,50 24.58,50.74    "/><rect x="25.81" y="53.34" width="36.83" height="1.33"/><rect x="25.81" y="25.34" width="36.83" height="1.33"/><polygon points="19.09,30.86 16.62,26.79 17.76,26.1 19.15,28.4 23.48,22 24.58,22.74    "/><rect x="23.02" y="39.53" width="43.94" height="1.45"/><polygon points="15.02,45.08 12.16,41.13 13.33,40.28 15.08,42.7 20.34,36.17 21.47,37.08   "/><path d="M73.3,31.83h-2.87v-17.6c0-2.5-2.03-4.52-4.52-4.52H14.09c-2.49,0-4.52,2.03-4.52,4.52v17.6H6.4c-1.38,0-2.5,1.12-2.5,2.49  V46.2c0,1.38,1.12,2.5,2.5,2.5h3.17v17.08c0,2.5,2.03,4.52,4.52,4.52h51.81c2.5,0,4.52-2.03,4.52-4.52V48.69h2.87  c1.38,0,2.49-1.12,2.49-2.5V34.32C75.8,32.94,74.68,31.83,73.3,31.83z M10.91,14.23c0-1.76,1.43-3.19,3.19-3.19h51.81  c1.76,0,3.19,1.43,3.19,3.19v17.6H10.91V14.23z M69.09,65.77c0,1.76-1.43,3.19-3.19,3.19H14.09c-1.76,0-3.19-1.43-3.19-3.19V48.69  h58.19V65.77z M74.61,46.2c0,0.72-0.59,1.31-1.31,1.31h-2.87h-1.34H10.91H9.57H6.4c-0.72,0-1.31-0.59-1.31-1.31V34.32  c0-0.72,0.59-1.31,1.31-1.31h3.17h1.34h58.19h1.34h2.87c0.72,0,1.31,0.59,1.31,1.31V46.2z"/>
	</symbol>
</svg>
	