
<svg xmlns="http://www.w3.org/2000/svg"> 
  	<symbol viewBox="0 0 80 80" id="s">
		<path d="M70.88,70.35H9.12c-2.71,0-4.91-2.2-4.91-4.91V14.56c0-2.71,2.2-4.91,4.91-4.91h61.75c2.71,0,4.91,2.2,4.91,4.91v50.89   C75.79,68.15,73.58,70.35,70.88,70.35z M9.12,11.1c-1.91,0-3.46,1.55-3.46,3.46v50.89c0,1.91,1.55,3.46,3.46,3.46h61.75   c1.91,0,3.46-1.55,3.46-3.46V14.56c0-1.91-1.55-3.46-3.46-3.46H9.12z"/>
		<rect x="23.08" y="25.28" width="43.94" height="1.45"/><polygon points="15.08,44.83 12.22,40.87 13.4,40.02 15.14,42.44 20.41,35.91 21.53,36.82    "/><polygon points="15.08,30.83 12.22,26.87 13.4,26.02 15.14,28.44 20.41,21.91 21.53,22.82    "/><rect x="23.08" y="39.28" width="43.94" height="1.45"/><polygon points="15.08,58.83 12.22,54.87 13.4,54.02 15.14,56.44 20.41,49.91 21.53,50.82    "/><rect x="23.08" y="53.27" width="43.94" height="1.45"/>
	</symbol>
</svg>
	