
		<svg xmlns="http://www.w3.org/2000/svg"> 

  			<symbol viewBox="0 0 80 40.3" id="s"> 
<g>
	<g>
		<path style="fill:#F22435;" d="M14.8,3.1C8,3.1,2.5,8.6,2.5,15.5S8,27.8,14.8,27.8s12.3-5.5,12.3-12.3S21.6,3.1,14.8,3.1z M14.8,23.5
			c-4.4,0-8-3.6-8-8c0-4.4,3.6-8,8-8c4.4,0,8,3.6,8,8C22.8,19.9,19.2,23.5,14.8,23.5z"/>
		<g>
			<path style="fill:#AA192D;" d="M22.4,31.6c-0.5,0-2-0.4-4.4-4.2c-3-4.8-5.7-7.9-5.7-8L12,19c0,0,4.6,0,4.6,0c0.5,0,1.9,0.2,3.4,2.6
				c1.7,2.9,4.7,6.7,4.8,6.8l0.1,0.1l-2.2,3l-0.1,0L22.4,31.6z"/>
			<path style="fill:#FFFFFF;" d="M16.6,19.3c0.3,0,1.7,0.2,3.1,2.5c1.8,2.9,4.8,6.8,4.8,6.8l-2,2.8c0,0,0,0-0.1,0c-0.4,0-1.8-0.3-4.2-4.1
				c-3-4.9-5.7-8-5.7-8L16.6,19.3C16.6,19.3,16.6,19.3,16.6,19.3 M16.7,18.8c0,0-0.1,0-0.1,0h-4h-1.1l0.7,0.8c0,0,2.7,3.2,5.7,8
				c2.4,3.9,4,4.3,4.6,4.3c0.1,0,0.2,0,0.2,0l0.2,0l0.1-0.2l2-2.8l0.2-0.3l-0.2-0.3c0,0-3-3.9-4.8-6.7C18.6,19,17.1,18.8,16.7,18.8
				L16.7,18.8z"/>
		</g>
		<path style="fill:#F22435;" d="M44.3,1.2L30.4,28.8c0,0-1.2,2.5-3.1,2.5s-4.8,0-4.8,0L44.3,1.2z"/>
	</g>
	<path style="fill:#000200;" d="M38.6,14.8h4.2l-1.3,7.4c0,0-0.4,2.2,1.3,2.5c1.7,0.3,2.8-1.4,3.1-2.7s1.3-7.2,1.3-7.2h4.1
		c0,0-2.1,11.9-2.1,12.3s0,0.6,0,0.6h-3.9l0.1-1.8c0,0-1.7,2.9-5.3,2.1c-3.6-0.8-2.8-4.9-2.8-4.9L38.6,14.8z"/>
	<g>
		<polygon style="fill:#000200;" points="52.2,14.8 56.3,14.8 54.1,27.7 49.9,27.7 		"/>
		<ellipse transform="matrix(0.5334 -0.8459 0.8459 0.5334 15.5034 52.0529)" style="fill:#000200;" cx="54.9" cy="12" rx="2.4" ry="2.3"/>
	</g>
	<g>
		<polygon style="fill:#000200;" points="72.4,14.8 76.6,14.8 74.3,27.7 70.2,27.7 		"/>
		<ellipse transform="matrix(0.5334 -0.8459 0.8459 0.5334 24.9459 69.1691)" style="fill:#000200;" cx="75.2" cy="12" rx="2.4" ry="2.3"/>
	</g>
	<polygon style="fill:#000200;" points="57.1,14.8 59.4,27.7 63.9,27.7 71.6,14.8 67.1,14.7 62.6,23.3 61.5,14.8 	"/>
</g>
<g>
	<path style="fill:#008F2F;stroke:#008F2F;stroke-width:0.147;stroke-miterlimit:10;" d="M7.1,36.3v0.3c0,0.1,0,0.3-0.1,0.4s-0.1,0.2-0.2,0.3s-0.2,0.2-0.3,0.2S6.2,37.6,6,37.6c-0.1,0-0.3,0-0.4-0.1
		c-0.1,0-0.3-0.1-0.4-0.2S5.1,37.2,5,37.1c-0.1-0.1-0.1-0.3-0.1-0.5V34c0-0.2,0-0.3,0.1-0.4c0.1-0.1,0.1-0.2,0.2-0.3
		c0.1-0.1,0.2-0.2,0.4-0.2C5.7,33,5.8,33,6,33c0.3,0,0.6,0.1,0.8,0.3C6.9,33.4,7,33.5,7,33.6s0.1,0.3,0.1,0.4v0.3H6.4v-0.2
		c0-0.1,0-0.2-0.1-0.3c-0.1-0.1-0.2-0.1-0.3-0.1c-0.2,0-0.3,0.1-0.3,0.2c-0.1,0.1-0.1,0.2-0.1,0.4v2.4c0,0.1,0,0.2,0.1,0.3
		C5.7,36.9,5.8,37,6,37c0,0,0.1,0,0.1,0c0.1,0,0.1,0,0.1-0.1c0,0,0.1-0.1,0.1-0.1c0-0.1,0-0.1,0-0.2v-0.2H7.1z"/>
	<path style="fill:#008F2F;stroke:#008F2F;stroke-width:0.147;stroke-miterlimit:10;" d="M8.9,37.6v-0.3h0c-0.1,0.1-0.2,0.2-0.3,0.3c-0.1,0.1-0.2,0.1-0.4,0.1c-0.1,0-0.2,0-0.2,0
		c-0.1,0-0.2-0.1-0.2-0.1c-0.1-0.1-0.1-0.1-0.2-0.3c0-0.1-0.1-0.3-0.1-0.4c0-0.2,0-0.3,0-0.5c0-0.1,0.1-0.3,0.2-0.4
		c0.1-0.1,0.2-0.2,0.3-0.2s0.3-0.1,0.5-0.1c0,0,0,0,0.1,0c0,0,0.1,0,0.1,0c0,0,0,0,0.1,0c0,0,0.1,0,0.1,0v-0.3c0-0.1,0-0.2-0.1-0.3
		c0-0.1-0.1-0.1-0.3-0.1c-0.1,0-0.2,0-0.2,0.1c-0.1,0.1-0.1,0.1-0.1,0.2H7.5c0-0.3,0.1-0.5,0.3-0.7c0.1-0.1,0.2-0.2,0.3-0.2
		c0.1,0,0.3-0.1,0.4-0.1c0.1,0,0.3,0,0.4,0.1c0.1,0,0.2,0.1,0.3,0.2c0.1,0.1,0.2,0.2,0.2,0.3c0.1,0.1,0.1,0.3,0.1,0.5v2.3H8.9z
		 M8.9,36.2c-0.1,0-0.1,0-0.2,0c-0.1,0-0.3,0-0.4,0.1c-0.1,0.1-0.2,0.2-0.2,0.4c0,0.1,0,0.2,0.1,0.3c0.1,0.1,0.1,0.1,0.3,0.1
		c0.1,0,0.2,0,0.3-0.1s0.1-0.2,0.1-0.3V36.2z"/>
	<path style="fill:#008F2F;stroke:#008F2F;stroke-width:0.147;stroke-miterlimit:10;" d="M10.1,33h0.7v3.7c0,0.1,0,0.2,0.1,0.3c0,0,0.1,0.1,0.3,0.1v0.6c-0.2,0-0.3,0-0.4,0c-0.1,0-0.2-0.1-0.3-0.1
		c-0.1-0.1-0.2-0.2-0.2-0.3c0-0.1-0.1-0.3-0.1-0.5V33z"/>
	<path style="fill:#008F2F;stroke:#008F2F;stroke-width:0.147;stroke-miterlimit:10;" d="M11.4,33.7V33h0.7v0.7H11.4z M11.4,37.6v-3.3h0.7v3.3H11.4z"/>
	<path style="fill:#008F2F;stroke:#008F2F;stroke-width:0.147;stroke-miterlimit:10;" d="M14,37.6v-0.3c0,0-0.1,0.1-0.1,0.1c0,0-0.1,0.1-0.1,0.1s-0.1,0.1-0.2,0.1c-0.1,0-0.1,0-0.2,0
		c-0.3,0-0.5-0.1-0.6-0.3c0-0.1-0.1-0.2-0.1-0.3s0-0.3,0-0.4v-1.2c0-0.2,0-0.4,0-0.5c0-0.2,0.1-0.4,0.3-0.5c0.1-0.1,0.2-0.1,0.4-0.1
		c0.1,0,0.3,0,0.4,0.1s0.2,0.1,0.3,0.2h0V33h0.7v4.6H14z M13.3,36.5c0,0.1,0,0.2,0.1,0.3c0.1,0.1,0.1,0.1,0.3,0.1
		c0.1,0,0.2,0,0.2-0.1c0.1-0.1,0.1-0.2,0.1-0.3v-1.3c0-0.1,0-0.2-0.1-0.3c-0.1-0.1-0.1-0.1-0.2-0.1c-0.1,0-0.2,0-0.3,0.1
		c0,0.1-0.1,0.2-0.1,0.3V36.5z"/>
	<path style="fill:#008F2F;stroke:#008F2F;stroke-width:0.147;stroke-miterlimit:10;" d="M16.5,37.6v-0.3h0c-0.1,0.1-0.2,0.2-0.3,0.3c-0.1,0.1-0.2,0.1-0.4,0.1c-0.1,0-0.2,0-0.2,0
		c-0.1,0-0.2-0.1-0.2-0.1c-0.1-0.1-0.1-0.1-0.2-0.3c0-0.1-0.1-0.3-0.1-0.4c0-0.2,0-0.3,0-0.5c0-0.1,0.1-0.3,0.2-0.4
		c0.1-0.1,0.2-0.2,0.3-0.2s0.3-0.1,0.5-0.1c0,0,0,0,0.1,0c0,0,0.1,0,0.1,0c0,0,0,0,0.1,0c0,0,0.1,0,0.1,0v-0.3c0-0.1,0-0.2-0.1-0.3
		c0-0.1-0.1-0.1-0.3-0.1c-0.1,0-0.2,0-0.2,0.1c-0.1,0.1-0.1,0.1-0.1,0.2h-0.7c0-0.3,0.1-0.5,0.3-0.7c0.1-0.1,0.2-0.2,0.3-0.2
		c0.1,0,0.3-0.1,0.4-0.1c0.1,0,0.3,0,0.4,0.1c0.1,0,0.2,0.1,0.3,0.2c0.1,0.1,0.2,0.2,0.2,0.3c0.1,0.1,0.1,0.3,0.1,0.5v2.3H16.5z
		 M16.5,36.2c-0.1,0-0.1,0-0.2,0c-0.1,0-0.3,0-0.4,0.1c-0.1,0.1-0.2,0.2-0.2,0.4c0,0.1,0,0.2,0.1,0.3c0.1,0.1,0.1,0.1,0.3,0.1
		c0.1,0,0.2,0,0.3-0.1s0.1-0.2,0.1-0.3V36.2z"/>
	<path style="fill:#008F2F;stroke:#008F2F;stroke-width:0.147;stroke-miterlimit:10;" d="M19.1,37.6v-0.3c0,0-0.1,0.1-0.1,0.1c0,0-0.1,0.1-0.1,0.1s-0.1,0.1-0.2,0.1c-0.1,0-0.1,0-0.2,0
		c-0.3,0-0.5-0.1-0.6-0.3c0-0.1-0.1-0.2-0.1-0.3s0-0.3,0-0.4v-1.2c0-0.2,0-0.4,0-0.5c0-0.2,0.1-0.4,0.3-0.5c0.1-0.1,0.2-0.1,0.4-0.1
		c0.1,0,0.3,0,0.4,0.1s0.2,0.1,0.3,0.2h0V33h0.7v4.6H19.1z M18.4,36.5c0,0.1,0,0.2,0.1,0.3c0.1,0.1,0.1,0.1,0.3,0.1
		c0.1,0,0.2,0,0.2-0.1c0.1-0.1,0.1-0.2,0.1-0.3v-1.3c0-0.1,0-0.2-0.1-0.3c-0.1-0.1-0.1-0.1-0.2-0.1c-0.1,0-0.2,0-0.3,0.1
		c0,0.1-0.1,0.2-0.1,0.3V36.5z"/>
	<path style="fill:#008F2F;stroke:#008F2F;stroke-width:0.147;stroke-miterlimit:10;" d="M21.3,34.3H22l0.5,2h0l0.5-2h0.7l-1,3.8c0,0.1-0.1,0.3-0.2,0.4c-0.1,0.1-0.1,0.2-0.2,0.2
		c-0.1,0.1-0.2,0.1-0.3,0.1s-0.2,0-0.3,0h-0.2v-0.6h0.2c0.1,0,0.1,0,0.2,0c0,0,0.1-0.1,0.1-0.1c0-0.1,0.1-0.1,0.1-0.3
		c0-0.1,0.1-0.3,0.1-0.5L21.3,34.3z"/>
	<path style="fill:#008F2F;stroke:#008F2F;stroke-width:0.147;stroke-miterlimit:10;" d="M27.5,34.3h-0.7v-0.1c0-0.2,0-0.3-0.1-0.4s-0.2-0.2-0.4-0.2c-0.1,0-0.2,0-0.2,0.1c-0.1,0-0.1,0.1-0.1,0.1
		c0,0.1-0.1,0.1-0.1,0.2c0,0.1,0,0.1,0,0.2c0,0.1,0,0.2,0,0.2c0,0.1,0,0.1,0.1,0.2c0,0,0.1,0.1,0.1,0.1s0.1,0.1,0.2,0.1l0.5,0.2
		c0.2,0.1,0.3,0.1,0.4,0.2c0.1,0.1,0.2,0.2,0.2,0.3c0,0.1,0.1,0.2,0.1,0.4s0,0.3,0,0.4c0,0.2,0,0.4-0.1,0.5c0,0.2-0.1,0.3-0.2,0.4
		c-0.1,0.1-0.2,0.2-0.4,0.3c-0.2,0.1-0.3,0.1-0.6,0.1c-0.2,0-0.3,0-0.5-0.1c-0.1-0.1-0.3-0.1-0.4-0.2c-0.1-0.1-0.2-0.2-0.2-0.3
		s-0.1-0.3-0.1-0.4v-0.2h0.7v0.2c0,0.1,0,0.2,0.1,0.3c0.1,0.1,0.2,0.1,0.4,0.1c0.1,0,0.2,0,0.3,0c0.1,0,0.1-0.1,0.2-0.1
		c0-0.1,0.1-0.1,0.1-0.2c0-0.1,0-0.2,0-0.3c0-0.1,0-0.2,0-0.3c0-0.1,0-0.1-0.1-0.2c0,0-0.1-0.1-0.1-0.1c-0.1,0-0.1-0.1-0.2-0.1
		l-0.5-0.2c-0.3-0.1-0.5-0.3-0.6-0.5c-0.1-0.2-0.2-0.4-0.2-0.7c0-0.2,0-0.3,0.1-0.5c0-0.2,0.1-0.3,0.2-0.4c0.1-0.1,0.2-0.2,0.4-0.3
		C26,33,26.1,33,26.3,33c0.2,0,0.3,0,0.5,0.1c0.1,0.1,0.3,0.1,0.4,0.2c0.2,0.2,0.3,0.4,0.3,0.7V34.3z"/>
	<path style="fill:#008F2F;stroke:#008F2F;stroke-width:0.147;stroke-miterlimit:10;" d="M29.9,36.2h-1.4v0.4c0,0.1,0,0.2,0.1,0.2s0.1,0.1,0.2,0.1c0.1,0,0.2,0,0.3-0.1c0-0.1,0.1-0.1,0.1-0.2h0.7
		c0,0.3-0.1,0.5-0.3,0.7c-0.1,0.1-0.2,0.2-0.3,0.2c-0.1,0.1-0.3,0.1-0.4,0.1c-0.2,0-0.4,0-0.5-0.1c-0.2-0.1-0.3-0.2-0.3-0.3
		c0-0.1-0.1-0.2-0.1-0.3c0-0.1,0-0.2,0-0.4v-1.1c0-0.1,0-0.3,0-0.4c0-0.1,0.1-0.2,0.1-0.3c0.1-0.1,0.2-0.3,0.3-0.3
		c0.1-0.1,0.3-0.1,0.5-0.1c0.2,0,0.3,0,0.4,0.1s0.2,0.1,0.3,0.2c0.2,0.2,0.3,0.4,0.3,0.7V36.2z M28.6,35.7h0.7v-0.4
		c0-0.1,0-0.2-0.1-0.3c-0.1-0.1-0.1-0.1-0.2-0.1s-0.2,0-0.2,0.1c-0.1,0.1-0.1,0.2-0.1,0.3V35.7z"/>
	<path style="fill:#008F2F;stroke:#008F2F;stroke-width:0.147;stroke-miterlimit:10;" d="M30.4,37.6v-3.3h0.7v0.3c0.1-0.1,0.3-0.2,0.4-0.3c0.1-0.1,0.3-0.1,0.5-0.1V35c-0.1,0-0.1,0-0.2,0s-0.1,0-0.2,0
		c-0.1,0-0.2,0.1-0.2,0.1c-0.1,0.1-0.1,0.1-0.2,0.2c0,0.1-0.1,0.2-0.1,0.3v1.9H30.4z"/>
	<path style="fill:#008F2F;stroke:#008F2F;stroke-width:0.147;stroke-miterlimit:10;" d="M34.5,34.3l-0.9,3.3H33l-0.9-3.3h0.7l0.5,2.1h0l0.5-2.1H34.5z"/>
	<path style="fill:#008F2F;stroke:#008F2F;stroke-width:0.147;stroke-miterlimit:10;" d="M34.8,33.7V33h0.7v0.7H34.8z M34.8,37.6v-3.3h0.7v3.3H34.8z"/>
	<path style="fill:#008F2F;stroke:#008F2F;stroke-width:0.147;stroke-miterlimit:10;" d="M36.8,36.6c0,0.1,0,0.2,0.1,0.2S37,37,37.1,37c0.1,0,0.2,0,0.3-0.1c0-0.1,0.1-0.1,0.1-0.2h0.7
		c0,0.3-0.1,0.5-0.3,0.7c-0.1,0.1-0.2,0.2-0.3,0.2s-0.3,0.1-0.4,0.1c-0.2,0-0.4,0-0.5-0.1c-0.2-0.1-0.3-0.2-0.3-0.3
		c0-0.1-0.1-0.2-0.1-0.3c0-0.1,0-0.2,0-0.4v-1.1c0-0.1,0-0.3,0-0.4c0-0.1,0.1-0.2,0.1-0.3c0.1-0.1,0.2-0.3,0.3-0.3s0.3-0.1,0.5-0.1
		c0.2,0,0.3,0,0.4,0.1s0.2,0.1,0.3,0.2c0.2,0.2,0.3,0.4,0.3,0.8h-0.7c0-0.1,0-0.2-0.1-0.3c-0.1-0.1-0.1-0.1-0.2-0.1
		c-0.1,0-0.2,0-0.2,0.1c-0.1,0.1-0.1,0.2-0.1,0.3V36.6z"/>
	<path style="fill:#008F2F;stroke:#008F2F;stroke-width:0.147;stroke-miterlimit:10;" d="M38.6,33.7V33h0.7v0.7H38.6z M38.6,37.6v-3.3h0.7v3.3H38.6z"/>
	<path style="fill:#008F2F;stroke:#008F2F;stroke-width:0.147;stroke-miterlimit:10;" d="M39.7,35.4c0-0.1,0-0.3,0-0.4c0-0.1,0.1-0.2,0.1-0.3c0.1-0.1,0.2-0.3,0.3-0.3s0.3-0.1,0.5-0.1s0.4,0,0.5,0.1
		s0.3,0.2,0.3,0.3c0,0.1,0.1,0.2,0.1,0.3c0,0.1,0,0.2,0,0.4v1.1c0,0.1,0,0.3,0,0.4c0,0.1-0.1,0.2-0.1,0.3c-0.1,0.1-0.2,0.3-0.3,0.3
		c-0.2,0.1-0.3,0.1-0.5,0.1s-0.4,0-0.5-0.1c-0.2-0.1-0.3-0.2-0.3-0.3c0-0.1-0.1-0.2-0.1-0.3c0-0.1,0-0.2,0-0.4V35.4z M40.4,36.6
		c0,0.1,0,0.2,0.1,0.3c0.1,0.1,0.1,0.1,0.2,0.1s0.2,0,0.2-0.1c0.1-0.1,0.1-0.2,0.1-0.3v-1.3c0-0.1,0-0.2-0.1-0.3
		c-0.1-0.1-0.1-0.1-0.2-0.1s-0.2,0-0.2,0.1c-0.1,0.1-0.1,0.2-0.1,0.3V36.6z"/>
	<path style="fill:#008F2F;stroke:#008F2F;stroke-width:0.147;stroke-miterlimit:10;" d="M45.5,36.2h-1.4v0.4c0,0.1,0,0.2,0.1,0.2s0.1,0.1,0.2,0.1c0.1,0,0.2,0,0.3-0.1c0-0.1,0.1-0.1,0.1-0.2h0.7
		c0,0.3-0.1,0.5-0.3,0.7c-0.1,0.1-0.2,0.2-0.3,0.2c-0.1,0.1-0.3,0.1-0.4,0.1c-0.2,0-0.4,0-0.5-0.1c-0.2-0.1-0.3-0.2-0.3-0.3
		c0-0.1-0.1-0.2-0.1-0.3c0-0.1,0-0.2,0-0.4v-1.1c0-0.1,0-0.3,0-0.4c0-0.1,0.1-0.2,0.1-0.3c0.1-0.1,0.2-0.3,0.3-0.3s0.3-0.1,0.5-0.1
		c0.2,0,0.3,0,0.4,0.1s0.2,0.1,0.3,0.2c0.2,0.2,0.3,0.4,0.3,0.7V36.2z M44.2,35.7h0.7v-0.4c0-0.1,0-0.2-0.1-0.3
		c-0.1-0.1-0.1-0.1-0.2-0.1s-0.2,0-0.2,0.1c-0.1,0.1-0.1,0.2-0.1,0.3V35.7z"/>
	<path style="fill:#008F2F;stroke:#008F2F;stroke-width:0.147;stroke-miterlimit:10;" d="M46,37.6v-3.3h0.7v0.3h0c0.1-0.1,0.2-0.2,0.3-0.3c0.1-0.1,0.2-0.1,0.4-0.1c0.1,0,0.2,0,0.3,0
		c0.1,0,0.2,0.1,0.2,0.1s0.1,0.1,0.2,0.2c0,0.1,0.1,0.2,0.1,0.4v2.5h-0.7v-2.3c0-0.1,0-0.2-0.1-0.3c-0.1-0.1-0.1-0.1-0.2-0.1
		c-0.1,0-0.2,0-0.3,0.1c0,0.1-0.1,0.2-0.1,0.3v2.2H46z"/>
	<path style="fill:#008F2F;stroke:#008F2F;stroke-width:0.147;stroke-miterlimit:10;" d="M49.9,37.6V33H51c0.8,0,1.2,0.5,1.2,1.4c0,0.3,0,0.5-0.1,0.7c-0.1,0.2-0.2,0.3-0.5,0.5l0.7,2.1h-0.7l-0.6-2
		h-0.4v2H49.9z M50.6,33.6V35H51c0.1,0,0.2,0,0.3,0c0.1,0,0.1-0.1,0.2-0.1c0-0.1,0.1-0.1,0.1-0.2s0-0.2,0-0.3c0-0.1,0-0.2,0-0.3
		s0-0.2-0.1-0.2c-0.1-0.1-0.2-0.2-0.5-0.2H50.6z"/>
	<path style="fill:#008F2F;stroke:#008F2F;stroke-width:0.147;stroke-miterlimit:10;" d="M54.8,36.2h-1.4v0.4c0,0.1,0,0.2,0.1,0.2s0.1,0.1,0.2,0.1c0.1,0,0.2,0,0.3-0.1c0-0.1,0.1-0.1,0.1-0.2h0.7
		c0,0.3-0.1,0.5-0.3,0.7c-0.1,0.1-0.2,0.2-0.3,0.2c-0.1,0.1-0.3,0.1-0.4,0.1c-0.2,0-0.4,0-0.5-0.1c-0.2-0.1-0.3-0.2-0.3-0.3
		c0-0.1-0.1-0.2-0.1-0.3c0-0.1,0-0.2,0-0.4v-1.1c0-0.1,0-0.3,0-0.4c0-0.1,0.1-0.2,0.1-0.3c0.1-0.1,0.2-0.3,0.3-0.3s0.3-0.1,0.5-0.1
		c0.2,0,0.3,0,0.4,0.1s0.2,0.1,0.3,0.2c0.2,0.2,0.3,0.4,0.3,0.7V36.2z M53.4,35.7h0.7v-0.4c0-0.1,0-0.2-0.1-0.3
		c-0.1-0.1-0.1-0.1-0.2-0.1s-0.2,0-0.2,0.1c-0.1,0.1-0.1,0.2-0.1,0.3V35.7z"/>
	<path style="fill:#008F2F;stroke:#008F2F;stroke-width:0.147;stroke-miterlimit:10;" d="M55.4,37.6v-2.8H55v-0.5h0.3v-0.4c0-0.2,0-0.3,0.1-0.4c0-0.1,0.1-0.2,0.2-0.3c0.1-0.1,0.2-0.1,0.3-0.2
		c0.1,0,0.2,0,0.3,0h0.3v0.6h-0.3c-0.1,0-0.2,0.1-0.2,0.2v0.5h0.5v0.5H56v2.8H55.4z"/>
	<path style="fill:#008F2F;stroke:#008F2F;stroke-width:0.147;stroke-miterlimit:10;" d="M58.1,37.6v-0.3h0c-0.1,0.1-0.2,0.2-0.3,0.3c-0.1,0.1-0.2,0.1-0.4,0.1c-0.1,0-0.2,0-0.2,0
		c-0.1,0-0.2-0.1-0.2-0.1c-0.1-0.1-0.1-0.1-0.2-0.3c0-0.1-0.1-0.3-0.1-0.4c0-0.2,0-0.3,0-0.5c0-0.1,0.1-0.3,0.2-0.4
		c0.1-0.1,0.2-0.2,0.3-0.2c0.1,0,0.3-0.1,0.5-0.1c0,0,0,0,0.1,0c0,0,0.1,0,0.1,0c0,0,0,0,0.1,0s0.1,0,0.1,0v-0.3
		c0-0.1,0-0.2-0.1-0.3c0-0.1-0.1-0.1-0.3-0.1c-0.1,0-0.2,0-0.2,0.1c-0.1,0.1-0.1,0.1-0.1,0.2h-0.7c0-0.3,0.1-0.5,0.3-0.7
		c0.1-0.1,0.2-0.2,0.3-0.2c0.1,0,0.3-0.1,0.4-0.1c0.1,0,0.3,0,0.4,0.1c0.1,0,0.2,0.1,0.3,0.2c0.1,0.1,0.2,0.2,0.2,0.3
		c0.1,0.1,0.1,0.3,0.1,0.5v2.3H58.1z M58.1,36.2c-0.1,0-0.1,0-0.2,0c-0.1,0-0.3,0-0.4,0.1c-0.1,0.1-0.2,0.2-0.2,0.4
		c0,0.1,0,0.2,0.1,0.3c0.1,0.1,0.2,0.1,0.3,0.1c0.1,0,0.2,0,0.3-0.1c0.1-0.1,0.1-0.2,0.1-0.3V36.2z"/>
	<path style="fill:#008F2F;stroke:#008F2F;stroke-width:0.147;stroke-miterlimit:10;" d="M60,36.6c0,0.1,0,0.2,0.1,0.2s0.1,0.1,0.2,0.1c0.1,0,0.2,0,0.3-0.1c0-0.1,0.1-0.1,0.1-0.2h0.7
		c0,0.3-0.1,0.5-0.3,0.7c-0.1,0.1-0.2,0.2-0.3,0.2c-0.1,0.1-0.3,0.1-0.4,0.1c-0.2,0-0.4,0-0.5-0.1c-0.2-0.1-0.3-0.2-0.3-0.3
		c0-0.1-0.1-0.2-0.1-0.3c0-0.1,0-0.2,0-0.4v-1.1c0-0.1,0-0.3,0-0.4c0-0.1,0.1-0.2,0.1-0.3c0.1-0.1,0.2-0.3,0.3-0.3s0.3-0.1,0.5-0.1
		c0.2,0,0.3,0,0.4,0.1s0.2,0.1,0.3,0.2c0.2,0.2,0.3,0.4,0.3,0.8h-0.7c0-0.1,0-0.2-0.1-0.3c-0.1-0.1-0.1-0.1-0.2-0.1
		c-0.1,0-0.2,0-0.2,0.1C60,35.1,60,35.2,60,35.3V36.6z"/>
	<path style="fill:#008F2F;stroke:#008F2F;stroke-width:0.147;stroke-miterlimit:10;" d="M62.5,36.6c0,0.1,0,0.2,0.1,0.2s0.1,0.1,0.2,0.1c0.1,0,0.2,0,0.3-0.1c0-0.1,0.1-0.1,0.1-0.2h0.7
		c0,0.3-0.1,0.5-0.3,0.7c-0.1,0.1-0.2,0.2-0.3,0.2c-0.1,0.1-0.3,0.1-0.4,0.1c-0.2,0-0.4,0-0.5-0.1c-0.2-0.1-0.3-0.2-0.3-0.3
		c0-0.1-0.1-0.2-0.1-0.3c0-0.1,0-0.2,0-0.4v-1.1c0-0.1,0-0.3,0-0.4c0-0.1,0.1-0.2,0.1-0.3c0.1-0.1,0.2-0.3,0.3-0.3s0.3-0.1,0.5-0.1
		c0.2,0,0.3,0,0.4,0.1s0.2,0.1,0.3,0.2c0.2,0.2,0.3,0.4,0.3,0.8h-0.7c0-0.1,0-0.2-0.1-0.3c-0.1-0.1-0.1-0.1-0.2-0.1
		c-0.1,0-0.2,0-0.2,0.1c-0.1,0.1-0.1,0.2-0.1,0.3V36.6z"/>
	<path style="fill:#008F2F;stroke:#008F2F;stroke-width:0.147;stroke-miterlimit:10;" d="M64.2,33.7V33h0.7v0.7H64.2z M64.2,37.6v-3.3h0.7v3.3H64.2z"/>
	<path style="fill:#008F2F;stroke:#008F2F;stroke-width:0.147;stroke-miterlimit:10;" d="M65.4,35.4c0-0.1,0-0.3,0-0.4c0-0.1,0.1-0.2,0.1-0.3c0.1-0.1,0.2-0.3,0.3-0.3s0.3-0.1,0.5-0.1s0.4,0,0.5,0.1
		s0.3,0.2,0.3,0.3c0,0.1,0.1,0.2,0.1,0.3c0,0.1,0,0.2,0,0.4v1.1c0,0.1,0,0.3,0,0.4c0,0.1-0.1,0.2-0.1,0.3c-0.1,0.1-0.2,0.3-0.3,0.3
		c-0.2,0.1-0.3,0.1-0.5,0.1s-0.4,0-0.5-0.1c-0.2-0.1-0.3-0.2-0.3-0.3c0-0.1-0.1-0.2-0.1-0.3c0-0.1,0-0.2,0-0.4V35.4z M66.1,36.6
		c0,0.1,0,0.2,0.1,0.3c0.1,0.1,0.1,0.1,0.2,0.1s0.2,0,0.2-0.1c0.1-0.1,0.1-0.2,0.1-0.3v-1.3c0-0.1,0-0.2-0.1-0.3
		c-0.1-0.1-0.1-0.1-0.2-0.1s-0.2,0-0.2,0.1c-0.1,0.1-0.1,0.2-0.1,0.3V36.6z"/>
	<path style="fill:#008F2F;stroke:#008F2F;stroke-width:0.147;stroke-miterlimit:10;" d="M68,37.6v-3.3h0.7v0.3h0c0.1-0.1,0.2-0.2,0.3-0.3c0.1-0.1,0.2-0.1,0.4-0.1c0.1,0,0.2,0,0.3,0
		c0.1,0,0.2,0.1,0.2,0.1s0.1,0.1,0.2,0.2c0,0.1,0.1,0.2,0.1,0.4v2.5h-0.7v-2.3c0-0.1,0-0.2-0.1-0.3c-0.1-0.1-0.1-0.1-0.2-0.1
		c-0.1,0-0.2,0-0.3,0.1c0,0.1-0.1,0.2-0.1,0.3v2.2H68z"/>
	<path style="fill:#008F2F;stroke:#008F2F;stroke-width:0.147;stroke-miterlimit:10;" d="M72.6,36.2h-1.4v0.4c0,0.1,0,0.2,0.1,0.2s0.1,0.1,0.2,0.1c0.1,0,0.2,0,0.3-0.1c0-0.1,0.1-0.1,0.1-0.2h0.7
		c0,0.3-0.1,0.5-0.3,0.7c-0.1,0.1-0.2,0.2-0.3,0.2c-0.1,0.1-0.3,0.1-0.4,0.1c-0.2,0-0.4,0-0.5-0.1c-0.2-0.1-0.3-0.2-0.3-0.3
		c0-0.1-0.1-0.2-0.1-0.3c0-0.1,0-0.2,0-0.4v-1.1c0-0.1,0-0.3,0-0.4c0-0.1,0.1-0.2,0.1-0.3c0.1-0.1,0.2-0.3,0.3-0.3s0.3-0.1,0.5-0.1
		c0.2,0,0.3,0,0.4,0.1s0.2,0.1,0.3,0.2c0.2,0.2,0.3,0.4,0.3,0.7V36.2z M71.2,35.7h0.7v-0.4c0-0.1,0-0.2-0.1-0.3
		c-0.1-0.1-0.1-0.1-0.2-0.1s-0.2,0-0.2,0.1c-0.1,0.1-0.1,0.2-0.1,0.3V35.7z"/>
	<path style="fill:#008F2F;stroke:#008F2F;stroke-width:0.147;stroke-miterlimit:10;" d="M74.3,35.2c0-0.1,0-0.2-0.1-0.3c-0.1-0.1-0.1-0.1-0.2-0.1c-0.1,0-0.2,0-0.2,0.1s-0.1,0.1-0.1,0.2
		c0,0.1,0,0.1,0,0.2s0.1,0.1,0.2,0.2l0.4,0.2c0.3,0.1,0.4,0.2,0.5,0.4c0.1,0.2,0.1,0.3,0.1,0.5c0,0.1,0,0.3-0.1,0.4
		s-0.1,0.2-0.2,0.3c-0.1,0.1-0.2,0.2-0.3,0.2c-0.1,0.1-0.3,0.1-0.4,0.1c-0.3,0-0.5-0.1-0.7-0.3c-0.1-0.1-0.2-0.2-0.2-0.3
		C73,36.9,73,36.8,73,36.6h0.6c0,0.1,0,0.2,0.1,0.3C73.8,37,73.8,37,74,37c0.1,0,0.2,0,0.3-0.1c0.1-0.1,0.1-0.2,0.1-0.3
		c0-0.1,0-0.2-0.1-0.2c0-0.1-0.1-0.1-0.3-0.2l-0.3-0.1c-0.2-0.1-0.4-0.2-0.5-0.3c-0.1-0.2-0.2-0.3-0.2-0.6c0-0.1,0-0.3,0.1-0.4
		c0.1-0.1,0.1-0.2,0.2-0.3c0.1-0.1,0.2-0.2,0.3-0.2c0.1,0,0.3-0.1,0.4-0.1c0.1,0,0.3,0,0.4,0.1c0.1,0,0.2,0.1,0.3,0.2
		c0.1,0.1,0.2,0.2,0.2,0.3c0,0.1,0.1,0.2,0.1,0.4H74.3z"/>
</g>
</symbol>
   		</svg>
	