<svg xmlns="http://www.w3.org/2000/svg"> 
  			<symbol viewBox="0 0 80 80" id="s"><path d="M0.2,30.2c0.2-0.8,0.2-1.8,0.3-2.6c2.1-11.8,8.5-20.3,19.5-25c3.2-1.4,6.4-2.2,9.9-2.4c0.2,0,0.5-0.2,0.6-0.2
		c1.4,0,2.9,0,4.1,0c0.2,0,0.5,0.2,0.6,0.2c3.5,0.3,6.7,1.1,9.9,2.4c7.5,3.2,12.9,8.5,16.6,15.6c2.9,5.6,3.7,11.6,2.9,17.9
		c-0.5,4.3-1.9,8.1-4,12c-0.8,1.3-0.6,1.6,0.3,2.6c5.3,5.3,10.5,10.5,15.8,15.8c1.6,1.6,2.7,3.3,3.2,5.6c0.8,4.3-3.5,8.6-7.8,7.8
		c-2.2-0.5-4-1.6-5.6-3.2C62.8,73,59,69.1,55.3,65.5c-1.6-1.6-3.2-3.2-4.8-4.8c-0.8-0.8-1.3-1-2.4-0.3c0,0.2-0.2,0.3-0.5,0.3
		c-6.4,3.5-13.1,4.8-20.3,3.7c-5.1-0.8-9.7-2.6-13.9-5.6C6.2,53.3,1.8,46.2,0.3,37.1c-0.2-1-0.3-1.8-0.3-2.7
		C0.2,33.1,0.2,31.7,0.2,30.2z M32.4,56.4c13.1,0.2,23.9-10.5,23.9-23.8c0-13.4-10.5-24.1-23.9-24.1C19.1,8.5,8.6,19.1,8.5,32.5
		C8.6,45.5,19,56.2,32.4,56.4z" />
<path d="M20.7,17.6c0,2.4,2.1,3.8,4.3,3.2c1.4-0.5,3-1,4.5-1.1c5.9-0.6,11.6,2.6,14.2,8c0.3,0.6,0.6,1.3,1.1,1.8
		c1.1,1.1,2.9,1.3,4.1,0.5s1.9-2.6,1.3-4.1c-1.1-2.7-2.7-4.9-4.8-7c-3-2.7-6.4-4.6-10.4-5.4c-4.1-0.8-8.3-0.5-12.3,1.3
		C21.5,15.2,20.9,16.2,20.7,17.6z" />
</symbol>
   		</svg>
	