
<svg xmlns="http://www.w3.org/2000/svg"> 
  	<symbol viewBox="0 0 80 80" id="s">
		<path d="M72.18,54.6H7.82c-1.87,0-3.39-1.52-3.39-3.39V28.79c0-1.87,1.52-3.39,3.39-3.39h64.35c1.87,0,3.39,1.52,3.39,3.39v22.42   C75.56,53.08,74.04,54.6,72.18,54.6z M7.82,26.4c-1.32,0-2.39,1.07-2.39,2.39v22.42c0,1.32,1.07,2.39,2.39,2.39h64.35   c1.32,0,2.39-1.07,2.39-2.39V28.79c0-1.32-1.07-2.39-2.39-2.39H7.82z"/><path d="M25.57,48.7l-0.18-1.58h-0.08c-0.7,0.98-2.05,1.86-3.83,1.86c-2.54,0-3.83-1.79-3.83-3.6c0-3.03,2.69-4.69,7.54-4.66v-0.26   c0-1.04-0.28-2.9-2.85-2.9c-1.16,0-2.38,0.36-3.26,0.93l-0.52-1.5c1.04-0.67,2.54-1.11,4.12-1.11c3.83,0,4.76,2.62,4.76,5.13v4.69   c0,1.09,0.05,2.15,0.21,3H25.57z M25.23,42.3c-2.49-0.05-5.31,0.39-5.31,2.82c0,1.48,0.98,2.18,2.15,2.18   c1.63,0,2.67-1.04,3.03-2.1c0.08-0.23,0.13-0.49,0.13-0.73V42.3z"/><path d="M31.01,48.7c0.05-0.86,0.1-2.12,0.1-3.24V30.31h2.25v7.87h0.05c0.8-1.4,2.25-2.31,4.27-2.31c3.11,0,5.31,2.59,5.28,6.4   c0,4.48-2.82,6.71-5.62,6.71c-1.81,0-3.26-0.7-4.2-2.36h-0.08l-0.1,2.07H31.01z M33.37,43.67c0,0.28,0.05,0.57,0.1,0.83   c0.44,1.58,1.76,2.67,3.42,2.67c2.38,0,3.81-1.94,3.81-4.82c0-2.51-1.3-4.66-3.73-4.66c-1.55,0-3,1.06-3.47,2.8   c-0.05,0.26-0.13,0.57-0.13,0.93V43.67z"/><path d="M54.79,48.23c-0.6,0.31-1.92,0.72-3.6,0.72c-3.78,0-6.24-2.56-6.24-6.4c0-3.86,2.64-6.66,6.73-6.66   c1.35,0,2.54,0.34,3.16,0.65l-0.52,1.76c-0.54-0.31-1.4-0.6-2.64-0.6c-2.88,0-4.43,2.12-4.43,4.74c0,2.9,1.86,4.69,4.35,4.69   c1.29,0,2.15-0.34,2.8-0.62L54.79,48.23z"/><polygon points="62.35,30.9 62.35,29.81 53.25,29.81 53.25,30.9 57.28,30.9 57.28,50.12 53.25,50.12 53.25,51.21 62.35,51.21   62.35,50.12 57.88,50.12 57.88,30.9 "/>
	</symbol>
</svg>
	