
		<svg xmlns="http://www.w3.org/2000/svg"> 

  			<symbol viewBox="0 0 80 80" id="s"><path d="M38.7,56.2c-1.5-2.3-3-4.5-4.6-6.8c0.2-0.2,0.3-0.4,0.5-0.5c4.4-4.4,5.9-9.7,4.1-15.6c-1.8-6-5.9-9.7-12-10.9
		C17.8,20.6,9,27.2,8.3,36.3c-0.6,8.3,5,15.4,13.2,16.8c0.7,0.1,1.4,0.2,2.1,0.2c0.6,0,1,0.2,1.3,0.7c1.5,2.3,3.1,4.5,4.8,6.9
		c-4,1.1-7.9,1-11.8,0c-6.4-1.7-11.3-5.4-14.7-11c-6.6-11.1-3-25.6,8.1-32.4c11.2-7,25.8-3.6,32.7,7.5
		C50.8,35.7,47.7,49.3,38.7,56.2z" />
<path d="M42.1,62.4c-2.9-4.2-5.7-8.3-8.6-12.5c-0.8-1.1-1.6-2.2-2.4-3.3c-0.7-0.9-1.7-1.5-2.9-1.6c-2.7,0-5.4,0-8.1,0
		c0,0-0.1,0.1-0.2,0.1c0.1,0.2,0.3,0.5,0.4,0.7C24.7,52,29,58.3,33.4,64.5c0.4,0.5,0.8,1,1.2,1.5c1.3,1.6,3,2.4,5.1,2.3l3-5.2
		C42.4,62.8,42.2,62.6,42.1,62.4z" />
<path d="M79.9,11.6C67.5,28.8,55.1,45.9,42.6,63.2l-3,5.2c2.6-0.1,5.3-0.1,7.9,0c1.7,0,3.2-0.5,4.3-1.8c1-1.3,2.1-2.6,2.8-4.1
		c6.7-13.2,13.4-26.4,20-39.7c1.8-3.7,3.6-7.3,5.4-11C80,11.7,79.9,11.7,79.9,11.6z" />
</symbol>
   		</svg>
	