
<svg xmlns="http://www.w3.org/2000/svg" viewBox="0 0 14 16"> 
  	<symbol viewBox="0 0 14 16" id="s">
		<path d="M1.8,8.9C1.8,8.9,1.8,8.9,1.8,8.9c0.5,0,1,0,1.5,0c0.1,0,0.3,0.1,0.4,0.2C3.9,9.3,4,9.5,4.2,9.7c0.5,0.7,1,1.4,1.5,2.2
	c0,0,0.1,0.1,0.1,0.1c2.2-3,4.3-6,6.4-8.9c0,0,0,0,0,0c0,0,0,0,0,0.1C10.7,6.1,9.3,9,7.8,11.9c-0.1,0.3-0.3,0.5-0.5,0.7
	c-0.2,0.2-0.4,0.3-0.7,0.3c-0.5,0-0.9,0-1.4,0c-0.3,0-0.6-0.1-0.8-0.3c-0.1-0.1-0.2-0.2-0.3-0.3C3.4,11.2,2.6,10.1,1.9,9
	C1.8,9,1.8,8.9,1.8,8.9z"/>
	</symbol>
</svg>
	