
		<svg xmlns="http://www.w3.org/2000/svg"> 

  			<symbol viewBox="0 0 80 80" id="s"><path d="M65.7,45.7c-8.3-4.5-16.5-4.6-23.8,1.7c-7.4,6.2-8.7,14.3-5.6,23.4c-0.4,0-0.8,0.1-1.1,0.1c-5-0.2-9.9-1-14.7-2.4
		c-0.8-0.2-1.1-0.6-1.2-1.5c-0.3-2.7-0.8-5.3-1.4-8c-0.3,2.7-0.5,5.4-0.8,8.4c-1.8-0.8-3.4-1.6-5.1-2.2c-2.6-0.9-3.8-2.6-3.8-5.3
		C8.1,55.5,7.5,51,8.7,46.6c1.9-7.3,7.2-11.2,14.3-12.7c2.4-0.5,5-0.5,7.5-0.7c0.4,0,0.9,0.1,1.4,0.3c3.3,1.2,6.6,1.5,9.9,0.4
		c2-0.7,3.9-0.8,5.9-0.7c6.1,0.4,11.6,2.3,15.5,7.2c1.2,1.5,2,3.3,3,5C65.9,45.5,65.8,45.6,65.7,45.7z" />
<path d="M37.3,31c-8.4,0.1-15.4-6.9-15.4-15.4C21.8,7.1,28.7,0.1,37.2,0s15.6,6.8,15.7,15.2C53,23.9,46.1,30.9,37.3,31z" />
<path d="M54.6,45.3c-9.3-0.1-17.2,7.7-17.3,16.9C37.2,72,44.8,79.9,54.5,80S72,72.4,72.1,62.8C72.1,53.1,64.5,45.3,54.6,45.3z
		 M65.9,64.6h-9.2V74h-4.1v-9.5h-9.1v-3.9h9.1v-9.5h4.1v9.5h9.2C65.9,60.6,65.9,64.6,65.9,64.6z" />
</symbol>
   		</svg>
	