
<svg xmlns="http://www.w3.org/2000/svg"> 
  	<symbol viewBox="0 0 80 80" id="s">
		<path d="M72.18,25.9H7.82c-1.59,0-2.89,1.29-2.89,2.89v22.42c0,1.59,1.29,2.89,2.89,2.89h64.35c1.59,0,2.89-1.29,2.89-2.89V28.79  C75.06,27.2,73.77,25.9,72.18,25.9z M25.74,45.44c0,0.88-0.71,1.59-1.59,1.59H13.26c-0.88,0-1.59-0.71-1.59-1.59V34.56  c0-0.88,0.71-1.59,1.59-1.59h10.89c0.88,0,1.59,0.71,1.59,1.59V45.44z M47.04,45.44c0,0.88-0.71,1.59-1.59,1.59H34.56  c-0.88,0-1.59-0.71-1.59-1.59V34.56c0-0.88,0.71-1.59,1.59-1.59h10.89c0.88,0,1.59,0.71,1.59,1.59V45.44z M68.34,45.44  c0,0.88-0.71,1.59-1.59,1.59H55.86c-0.88,0-1.59-0.71-1.59-1.59V34.56c0-0.88,0.71-1.59,1.59-1.59h10.89c0.88,0,1.59,0.71,1.59,1.59  V45.44z"/>
	</symbol>
</svg>
	