
		<svg xmlns="http://www.w3.org/2000/svg"> 

  			<symbol viewBox="0 0 80 80" id="s"><path d="M39.9,68.2C31.8,58.4,23.6,49,18.1,37.6c-5.2-10.8-4-21.4,3.3-29.5c8-8.8,21.2-10.7,31.3-4.6C63,9.6,67.6,22.1,63.6,33.3
		c-0.9,2.6-2.2,5.1-3.5,7.6C56.2,48.3,45.7,62.3,39.9,68.2z M52.5,25.2c0-7-5.5-12.6-12.4-12.6S27.5,18.1,27.5,25
		c-0.1,6.9,5.5,12.6,12.4,12.6C46.8,37.7,52.5,32.1,52.5,25.2z" />
<path d="M32.7,63.9c-1.5,0.8-2.5,1.2-3.5,1.8c-2.4,1.6-2.5,3.6,0,5.1c1.6,0.9,3.3,1.5,5.1,1.9c4.8,1,9.6,1,14.2-0.8
		c1.5-0.6,3.4-2.1,3.7-3.5c0.5-2.1-1.8-2.9-3.5-3.6c-0.4-0.2-0.7-0.3-1.8-0.9c1.4-0.6,2.4-1.4,3.1-1.2c3.4,1.1,6.9,2.1,10,3.9
		c4,2.4,3.9,6,0.1,8.7c-4,2.8-8.6,3.8-13.3,4.4c-7.7,0.9-15.4,0.6-22.7-2.1c-2-0.7-3.9-1.9-5.5-3.3c-2.3-2-2.2-4.6,0-6.7
		c3.2-3.1,7.3-4.2,11.5-4.9C30.9,62.5,31.7,63.3,32.7,63.9z" />
</symbol>
   		</svg>
	