
		<svg xmlns="http://www.w3.org/2000/svg"> 

  			<symbol viewBox="0 0 80 80" id="s"><path d="M37.3,0c2.3,0,4.6,0,6.8,0c1,0.2,2.1,0.4,3.1,0.6c9,1.5,16.5,5.7,22.6,12.4c5.2,5.8,8.3,12.5,9.5,20.2
		c1,6.9,0.3,13.6-2.3,20c-3.4,8.5-9.1,15.1-17.1,19.6c-8.5,4.8-17.6,6.1-27.1,4.3c-3.6-0.7-7-2-10.3-3.6c-0.4-0.2-0.9-0.3-1.2-0.1
		c-4.6,1.4-9.2,2.9-13.9,4.4c-2.3,0.7-4.6,1.4-7.1,2.2c0.5-1.5,0.9-2.8,1.3-4.1c1.7-5,3.3-10.1,5.1-15.1c0.4-1.1,0.5-1.9-0.1-3.1
		c-4.8-8.8-6.1-18.2-3.8-28c1.4-6,4.2-11.4,8.2-16.1C16.6,7.2,23.5,3,31.8,1C33.6,0.6,35.5,0.3,37.3,0z M10.6,69.9
		c3.9-1.2,7.5-2.3,11-3.5c1-0.3,1.7-0.2,2.6,0.4c5.7,3.4,11.9,4.9,18.6,4.5c6.8-0.4,12.8-2.7,18-6.9c6.9-5.6,11-12.8,12-21.8
		c0.7-6.2-0.2-12.2-3.1-17.7C64.8,15.2,57,9.1,46.3,7.2c-9-1.6-17.4,0.3-24.7,5.8c-9.8,7.4-14.2,17.5-13,29.8
		c0.5,5.3,2.5,10.2,5.5,14.6c0.2,0.3,0.3,1,0.1,1.4c-0.7,2.2-1.5,4.4-2.2,6.7C11.6,66.8,11.1,68.2,10.6,69.9z" />
<path d="M21.2,30.3c0.1-4.1,1.3-6.9,3.8-9.2c1.4-1.4,3-1.1,4.8-1c1.2,0.1,1.7,0.6,2.1,1.6c0.2,0.5,0.4,1,0.6,1.5
		c0.7,1.9,1.4,3.9,2.2,5.8c0.5,1.1,0.3,2.1-0.4,3c-0.6,0.8-1.3,1.6-1.9,2.3c-1,1.1-1.1,1.3-0.4,2.6c2.8,5,6.8,8.9,12,11.4
		c0.3,0.1,0.6,0.3,0.8,0.4c0.7,0.4,1.4,0.4,2-0.3c1-1.2,2.1-2.3,3.1-3.6c0.7-0.8,1.4-1.1,2.3-0.6c2.7,1.4,5.3,2.7,8,4.2
		c0.4,0.2,0.7,0.9,0.7,1.3c0.2,4.9-3.1,7.5-7.6,8.5c-3.8,0.9-7.1-0.9-10.4-2.2c-7.7-3-13.2-8.7-17.5-15.6C24.1,38.3,23,36,22,33.7
		C21.4,32.5,21.3,31,21.2,30.3z" />
</symbol>
   		</svg>
	