<svg xmlns="http://www.w3.org/2000/svg"> 
	<symbol viewBox="0 0 34.34 34.35" id="s">
		<path d="M34.34.07c0,1.63,0,3.21,0,4.79,0,2.46,0,4.92,0,7.38a5.47,5.47,0,0,1-3.26,5.36.9.9,0,0,0-.34.7c0,3.87,0,7.74,0,11.61,0,.25,0,.5,0,.83H30c-3.74,0-7.48,0-11.22,0a.93.93,0,0,0-1,.61,5.52,5.52,0,0,1-5,3c-4.17.07-8.34,0-12.51,0A.94.94,0,0,1,0,34.28c0-.16,0-.34,0-.52C0,29.82,0,25.89,0,22a5.3,5.3,0,0,1,3.23-5.16c.4-.19.38-.45.37-.77q0-5.8,0-11.61c0-.23,0-.46,0-.79h12a.73.73,0,0,0,.81-.44A5.07,5.07,0,0,1,21.13,0C25.42,0,29.72,0,34,0A2.14,2.14,0,0,1,34.34.07ZM24.52,7.24l-.61.64L19,12.83a4.44,4.44,0,0,0-.62.73A1.79,1.79,0,0,0,20.84,16a4.66,4.66,0,0,0,.67-.59l5-5c.14-.14.3-.27.55-.5,0,1,0,1.84,0,2.69a1.81,1.81,0,0,0,1.57,1.89,1.84,1.84,0,0,0,2.06-2c0-2.74,0-5.47,0-8.21,0-.18,0-.36-.06-.58H22A1.87,1.87,0,0,0,20,4.72a1.79,1.79,0,0,0,1.69,2.51C22.6,7.27,23.47,7.24,24.52,7.24ZM3.61,30.74H8.45c1.39,0,2.78,0,4.17,0a1.8,1.8,0,0,0,.15-3.6,7.73,7.73,0,0,0-.9,0H9.81l3-3c1-1,1.92-1.89,2.85-2.87a1.79,1.79,0,0,0-.32-2.86,1.82,1.82,0,0,0-2.33.41C11.3,20.47,9.57,22.22,7.83,24l-.57.53c0-1,0-1.75,0-2.54a1.93,1.93,0,0,0-1-1.83,1.81,1.81,0,0,0-2.68,1.74c0,2.67,0,5.35,0,8C3.61,30.13,3.61,30.39,3.61,30.74Zm7.25-19.87h5.46a1.86,1.86,0,0,0,1.88-1.81,1.82,1.82,0,0,0-1.91-1.82c-2.8,0-5.6,0-8.4,0-.53,0-.69.15-.68.68,0,2.65,0,5.3,0,8a4.32,4.32,0,0,0,.08.89,1.72,1.72,0,0,0,1.35,1.39,1.64,1.64,0,0,0,1.85-.71,2.9,2.9,0,0,0,.36-1.33C10.88,14.39,10.86,12.68,10.86,10.87Zm16.2,16.27a4.33,4.33,0,0,0,.06-.46c0-2.86,0-5.73,0-8.59a1.82,1.82,0,0,0-1.79-1.94,1.85,1.85,0,0,0-1.83,1.91c0,.73,0,1.45,0,2.18,0,1.06,0,2.12,0,3.24H21c-1,0-2,0-3,0a1.8,1.8,0,0,0-.13,3.59,5,5,0,0,0,.7,0h8.45Zm-5.39-9.53a3.64,3.64,0,0,1-5-4.92h-4v4a3.66,3.66,0,0,1,5,4.94h4Z"/>
	</symbol>
</svg>
	